<?xml version="1.0" standalone="no"?>
<!DOCTYPE svg PUBLIC "-//W3C//DTD SVG 20010904//EN"
 "http://www.w3.org/TR/2001/REC-SVG-20010904/DTD/svg10.dtd">
<svg version="1.0" xmlns="http://www.w3.org/2000/svg"
 width="700.000000pt" height="700.000000pt" viewBox="0 0 700.000000 700.000000"
 preserveAspectRatio="xMidYMid meet">
<metadata>
Created by potrace 1.11, written by Peter Selinger 2001-2013
</metadata>
<g transform="translate(0.000000,700.000000) scale(0.100000,-0.100000)"
fill="#000000" stroke="none">
<path d="M2536 5749 c-104 -25 -251 -139 -290 -226 l-18 -42 -52 29 c-110 61
-257 78 -373 42 -52 -17 -1410 -785 -1581 -894 -77 -50 -133 -112 -172 -192
-57 -117 -64 -259 -18 -373 13 -32 224 -407 469 -833 245 -426 578 -1006 740
-1289 353 -617 372 -642 544 -701 71 -24 208 -27 281 -5 28 8 151 73 275 143
123 71 363 208 532 305 l308 177 312 0 312 0 510 -297 c281 -163 537 -308 570
-322 53 -23 74 -26 175 -26 112 0 117 1 194 38 113 53 170 117 283 313 50 87
226 391 390 674 165 283 463 796 663 1140 200 344 372 650 383 680 57 163 17
348 -105 476 -55 59 -69 67 -693 429 -225 131 -522 303 -660 383 -137 80 -277
154 -310 165 -120 38 -263 23 -373 -40 -24 -14 -45 -23 -48 -21 -2 2 -21 32
-43 65 -40 63 -115 129 -182 164 -96 48 -103 49 -1074 48 -509 -1 -927 -5
-949 -10z m1901 -287 c50 -26 88 -73 101 -127 7 -26 8 -559 4 -1542 l-7 -1501
-30 -44 c-18 -25 -49 -52 -75 -65 -43 -23 -51 -23 -406 -23 l-362 0 67 67 c99
101 140 199 141 333 0 119 -12 150 -176 435 -56 99 -106 188 -109 198 -7 16
10 17 256 17 244 0 266 2 296 20 44 26 66 73 61 124 -6 54 -578 1048 -621
1080 -39 29 -115 29 -154 0 -16 -12 -79 -108 -150 -230 -67 -115 -125 -215
-130 -222 -5 -9 -121 184 -343 570 l-335 583 -3 97 c-3 79 0 105 16 141 21 46
71 92 119 108 16 5 397 7 913 5 884 -3 885 -3 927 -24z m-2436 -174 c22 -6 54
-25 72 -43 17 -17 136 -213 263 -436 128 -222 460 -802 740 -1289 279 -487
512 -903 517 -925 13 -57 -6 -119 -51 -165 -25 -27 -275 -175 -791 -470 -842
-482 -805 -465 -905 -416 -30 15 -61 37 -70 51 -8 13 -347 601 -753 1307
l-737 1283 -3 65 c-5 76 13 118 68 161 37 29 1448 841 1514 870 47 22 83 23
136 7z m3134 -13 c19 -7 234 -130 478 -271 1119 -651 1061 -615 1093 -676 19
-37 18 -132 -2 -171 -10 -18 -347 -601 -751 -1297 -455 -784 -747 -1277 -768
-1297 -18 -17 -53 -37 -76 -43 -86 -24 -82 -26 -624 294 l-120 70 53 7 c28 4
86 23 127 43 101 47 174 121 223 223 l37 78 6 308 c3 169 9 310 12 313 3 3 88
-39 189 -95 145 -80 191 -101 222 -101 79 0 87 11 336 459 197 355 230 421
230 456 0 81 -10 88 -455 337 l-410 229 -57 -4 -58 -3 0 467 0 468 37 63 c48
82 79 116 128 139 48 22 104 24 150 4z m-1470 -1519 c85 -148 155 -270 155
-272 0 -3 -91 -3 -202 -2 l-202 3 -58 100 c-32 55 -57 105 -55 111 6 28 193
341 200 335 4 -4 77 -128 162 -275z m1598 -116 c114 -63 207 -119 207 -124 0
-15 -284 -525 -293 -526 -5 0 -87 44 -183 97 l-174 97 0 209 0 209 61 108 60
109 58 -32 c31 -18 150 -84 264 -147z"/>
<path d="M1806 3955 c-101 -26 -185 -74 -261 -150 -115 -114 -165 -234 -165
-395 0 -161 50 -281 165 -395 137 -137 321 -193 507 -154 194 40 364 202 425
403 22 71 21 216 -1 290 -40 135 -129 258 -237 327 -120 77 -299 108 -433 74z"/>
<path d="M2777 2538 c-46 -44 -56 -99 -29 -162 48 -107 195 -102 237 8 23 60
14 109 -30 153 -29 29 -39 33 -88 33 -49 0 -60 -4 -90 -32z"/>
<path d="M2210 2219 c-135 -77 -255 -150 -268 -162 -37 -35 -48 -88 -28 -141
21 -56 66 -86 127 -86 37 0 76 19 282 136 131 75 251 147 267 161 63 52 60
145 -6 203 -28 24 -44 30 -82 30 -42 0 -72 -14 -292 -141z"/>
</g>
</svg>
