<svg version="1" xmlns="http://www.w3.org/2000/svg" width="1277.333" height="1277.333" viewBox="0 0 958.000000 958.000000"><path d="M431.5 78.9c-6.7 4-7.8 6.5-14.3 31.8-3.4 13.2-6.2 24.5-6.2 25.1 0 .6-.4 1.3-.8 1.6-.5.3-43 10.2-94.5 22-51.6 11.9-95.5 22.5-97.6 23.5-4.9 2.6-8.1 7.6-8.1 12.9 0 3 33 150 35.6 158.5.4 1.4-.7 2.3-5.3 4.3-12.4 5.6-47.6 19.8-64.3 26.1-18.7 7-70.3 24.6-75.8 25.8-3.6.8-8.1 5.5-21.7 23-22.2 28.6-37.6 56.5-34.7 62.9 2.4 5.4 3.6 5 49.5-16.5 23.8-11.1 43.7-20.3 44.4-20.6.7-.3 2.9 2.8 5.3 7.7l4.1 8.1-23.4 25.2C31.5 599.6 15.9 616.8 15.4 618.8c-.4 1.4 0 3 1 4 .8 1 30.8 16.2 66.6 33.7l65 32v30.1c0 27.3.2 30.4 1.7 32.2 1.5 1.7 316.9 144.4 324 146.6 1.7.6 40.6-16.5 163.5-71.9 88.7-40 162.1-73.4 163.1-74.2 1.6-1.5 1.7-4.5 1.7-35.7v-34.1l33.4-16.4c24-11.7 33.7-17 34.6-18.7 1.1-1.9 1-3.8-.5-10.6-4.4-20.5-15.5-45.7-26.4-60.2-5.1-6.8-6.2-9.1-7.6-15.5-5.6-25.6-16.2-54.6-27.3-74.9-3-5.4-3.3-6.6-2.1-7.7.8-.8 9.7-5.7 19.9-10.8 24.5-12.6 65.2-30.8 107.3-48.2 16-6.6 18.8-8.1 19.3-10.2.4-1.3.3-3.2-.2-4.2-1-2-33.5-28.7-62.9-51.7-50.9-39.7-97.6-74.1-147.4-108.5-12.3-8.5-22.6-16-22.8-16.7-.3-.7 2.7-14.1 6.6-29.7 4.1-16.6 7.1-30.6 7.1-33.5 0-7.8-4-14.4-11-18-5.2-2.6-277.2-69-282.8-69-2.8 0-5.9.8-7.7 1.9zm-23.5 65c0 1.2-23.1 95.5-23.5 95.9-.2.2-2.3.8-4.7 1.3-2.4.5-6.2 1.7-8.5 2.5-3.7 1.4-4.3 2.2-6.3 7.5-1.8 5-4.9 17.6-5 20.1 0 1.6 5.7.7 11.5-1.7 3.3-1.4 6.1-2.5 6.1-2.5.3 0-5.4 22.2-5.8 22.5-1.5 1.5-10.7 4.5-13.9 4.5-4.6 0-4.8.3-8.5 15-2.2 8.8-2.3 9.6-.7 10.7 2.3 1.7 8.6 1.6 12.9-.2 2.7-1.1 3.5-1.2 3.1-.2-.2.6-1.5 5.7-2.8 11.1-2.3 9.8-2.4 9.9-6.4 11.7-2.2 1-5.6 1.9-7.5 1.9-6.6.1-7.7.8-9.9 6.8-2 5.6-5.1 18.1-5.1 20.6 0 1.1 2.1.9 9.6-.9l9.5-2.2-.7 4.1c-.3 2.2-1.6 7.5-2.8 11.6-2.4 8.3-1.6 7.7-16.1 12l-7.1 2.1-1.6 6.1c-1.3 5.2-1.4 6.5-.3 8.3.8 1.1 1.7 3.8 2.1 6 .3 2.2 1.1 4.8 1.6 5.7 1.1 2.3 6.7 3.8 9.2 2.5 1.7-.8 1.8-.6 1.2 1.8-.4 1.5-1 4-1.3 5.6-.4 2-1.2 2.9-2.4 2.9-1.1 0-3.9 1.8-6.3 4-3.3 3-5.8 4.4-9.9 5.2l-5.5 1.2-2.3 7.5c-3.1 10.5-3.1 14.1.1 15.8 2.4 1.4 9.6 1.2 14.8-.3 2.1-.6 2.2-.4 2.2 5.1 0 7.2 2.4 11.4 8.2 14.4 2.4 1.2 43.4 11.9 92.8 24.1 48.7 12.1 89.6 22.3 91 22.6 1.7.4-14.8 4.6-50.7 12.9-29.2 6.8-54.7 12.8-56.5 13.3-1.8.6-11.6 2.9-21.8 5.3-10.2 2.3-18.9 4.5-19.3 4.9-.5.4.5 1.2 2.1 1.8 2.4.8 10.9-.8 50.3-9.9 26.1-6 48.4-11.1 49.7-11.4l2.2-.5v49.5l10 4.4c6.2 2.7 10.6 4.1 11.7 3.7 1-.4 27.5-12.2 58.8-26.3 31.4-14 60.2-26.9 64-28.6 3.9-1.6 11.3-5 16.5-7.5 5.2-2.5 43.2-19.7 84.3-38.3l74.9-33.7-14.4-4.7c-34.4-11.4-76-26.8-104-38.5-4.4-1.8-7.8-3.8-7.8-4.6 0-1.7 46.7-190.3 47.7-192.7.7-1.5 4.2.6 24.3 14.5 42.2 29.3 87.4 62.5 133.4 97.8 20.4 15.7 72.8 58.1 72.4 58.5-.2.2-6.4 2.8-13.8 5.8-14.6 6-57.9 24.6-74.9 32.2-13.7 6.1-44.6 21.6-54.3 27.2l-7.7 4.4 2.9 4.8c10.6 17.2 24.8 54.1 30.3 78.6 2.2 10 2.9 11.7 7.5 17.8 6.5 8.5 12 18 16.6 28.6 3.7 8.4 9.8 27.4 11 34.4l.7 3.8-69.8 34.6c-38.4 19-111 55-161.3 79.8-91.5 45.2-91.5 45.2-92.2 42.6-.4-1.4-1.9-22.4-3.4-46.6l-2.7-43.9L517 683c-10.3-15.1-23.6-34.8-29.5-43.8-6-8.9-10.9-16.1-11.1-16-.3.4 55.3 213.9 55.9 214.4.2.3 59.6-26 131.8-58.4l131.4-58.8.3 13.5c.1 7.5-.1 13.7-.5 13.9-.4.1-72.6 32.6-160.3 72.1l-159.5 71.9-.6-15.1c-.3-8.4-1.3-19.3-2.2-24.2-5.1-29.1-5-67 .3-97.5 1.9-10.8 2-15.3 1.8-72.3l-.3-60.8-55.5 82.9-55.6 83-94.4-46.4c-52-25.4-129.1-63.3-171.3-84l-76.8-37.8 3.9-4c2.2-2.3 27-29.1 55.2-59.6 28.3-30.5 56.5-61 62.8-67.7l11.3-12.2-8-15.8c-8.6-16.9-14.9-25.6-23.4-32.1-5.6-4.3-17.1-10.2-19.9-10.2-2.8 0-2.1-1.7 1-2.4 4.7-1.1 44.9-14.6 61.7-20.6 20.7-7.5 39.4-14.9 62.7-24.8l18.8-8 .9 3.7c.6 2 4 16.9 7.7 33.1 25.4 111.7 31.3 136.4 33 137.7 2.5 1.8 3.6 1.6 3-.5-.3-.9-17.9-77.3-39.2-169.7-28.2-123-38.4-169-38.1-171.8.7-5.3 3.8-8.2 10.5-10 6.1-1.7 156.6-36.3 171.7-39.5 11.1-2.4 11.5-2.4 11.5-1.3z"/><path d="M262.4 222.4c-.3.8-.4 2.5-.2 3.8.4 2.7 3.9 3.6 5.6 1.5 1-1.1.8-2-.9-4.1-2.3-2.9-3.7-3.3-4.5-1.2z"/></svg>